<svg xmlns="http://www.w3.org/2000/svg" viewBox="0 0 80.56 104.93"><defs><style>.cls-1{fill:#f26522;}.cls-2{fill:#fff;}</style></defs><title>Asset 2mag_normal</title><g id="Layer_2" data-name="Layer 2"><g id="Layer_2-2" data-name="Layer 2"><path class="cls-1" d="M80.24,97.51,63.81,69a39,39,0,1,0-10.73,6.29l16.4,28.4a2.4,2.4,0,0,0,3.27.88l6.63-3.83A2.4,2.4,0,0,0,80.24,97.51Z"/><path class="cls-2" d="M39,73.75A35.13,35.13,0,1,1,74.13,38.63,35.16,35.16,0,0,1,39,73.75ZM39,7.5A31.13,31.13,0,1,0,70.13,38.63,31.16,31.16,0,0,0,39,7.5Z"/><path class="cls-2" d="M48.34,17.58h-18A14.25,14.25,0,0,0,16.14,31.8h0a3.38,3.38,0,0,0,3.37,3.37H59.18a3.38,3.38,0,0,0,3.37-3.37h0A14.25,14.25,0,0,0,48.34,17.58ZM30.09,24.92a2.57,2.57,0,0,1-1.2.29h-.23a3.2,3.2,0,0,1-1.25-.38l-.11-.05a3.53,3.53,0,0,0-.31-.21,2.73,2.73,0,0,1-.48-.33.63.63,0,0,1-.26-.43.56.56,0,0,1,0-.22c.11-.43.95-.38,1.48-.43a2.89,2.89,0,0,1,2.44,1.27C30.31,24.62,30.31,24.81,30.09,24.92Zm5,5.68a2.87,2.87,0,0,1-1.19,1,2.88,2.88,0,0,1-1.92.41.41.41,0,0,1-.22-.13h-.09l0-.09a.54.54,0,0,1,0-.19A2.79,2.79,0,0,1,33,30h0l.23-.13.24-.12.29-.11.08,0a2.36,2.36,0,0,1,.38-.08l.08,0c.35-.05.78-.11,1,.19S35.25,30.34,35.05,30.61Zm4.3-7.33h0c-.85,0-.87-1.12-1-1.89.19-.79.22-2.06,1-2.05h.08c.75,0,.78,1.27,1,2.05C40.23,22.15,40.21,23.27,39.36,23.27ZM47,31.86a.41.41,0,0,1-.22.13,3.71,3.71,0,0,1-3.11-1.38c-.19-.27-.54-.59-.29-.93s.65-.24,1-.19l.08,0a2.36,2.36,0,0,1,.38.08l.08,0,.29.11.24.12.23.13h0A2.79,2.79,0,0,1,47,31.57a.54.54,0,0,1,0,.19l0,.09Zm5.21-7.61a2.73,2.73,0,0,1-.48.33,3.53,3.53,0,0,0-.31.21l-.11.05a3.2,3.2,0,0,1-1.25.38H49.8a2.57,2.57,0,0,1-1.2-.29c-.22-.12-.22-.3-.09-.49a2.89,2.89,0,0,1,2.44-1.27c.53.05,1.36,0,1.48.43a.56.56,0,0,1,0,.22A.63.63,0,0,1,52.18,24.24Z"/><path class="cls-2" d="M17.84,49.12H61.69a1.52,1.52,0,0,1,1.52,1.52v.65a5.33,5.33,0,0,1-5.33,5.33h-36a5.33,5.33,0,0,1-5.33-5.33v-.85a1.31,1.31,0,0,1,1.31-1.31Z"/><path class="cls-2" d="M61.31,43.38c0,.79-5.86,1.85-11.52,1.85s-10.65-.75-10.65-1.54c0,.79-4.82,1.63-10.48,1.63s-11.17-1.21-11.17-2c0-.19-2.42,3.44-2.42,3.44H63.71S61.31,43.19,61.31,43.38Z"/><path class="cls-2" d="M52.56,40.9a.09.09,0,0,0,0,.05.43.43,0,0,0,0-.11S52.56,40.86,52.56,40.9Z"/><path class="cls-2" d="M61.38,36.71a19.9,19.9,0,0,1-10.17,2.67c-7.53,0-11.75-2.71-11.75-2.71a6.49,6.49,0,0,1-2.11,1.06,22.83,22.83,0,0,1-8.06,1.35c-8.25,0-11.91-2.37-11.91-2.37v4h0a.19.19,0,0,0,0,.08c0,.6,2,1.08,4.4,1.08s4.34-.47,4.4-1.06c.06.59,2,1.06,4.39,1.06S35,41.44,35,40.84c0,0,0,0,0,0,0,.6,2,1.08,4.41,1.08s4.33-.47,4.39-1.06c.06.59,2,1.06,4.4,1.06s4.16-.42,4.39-1a.09.09,0,0,1,0-.05s0-.07,0-.06a.43.43,0,0,1,0,.11c.1.58,2,1,4.4,1s4.41-.48,4.41-1.08a.35.35,0,0,0-.06-.14h.06Zm-35.22,4.1a.08.08,0,0,0,0,0h0A.08.08,0,0,0,26.16,40.81Zm17.62,0a.08.08,0,0,0,0,0h0Z"/></g></g></svg>