<svg xmlns="http://www.w3.org/2000/svg" viewBox="0 0 80.56 104.93"><defs><style>.cls-1{fill:#fff;}</style></defs><title>Asset 1mag_white</title><g id="Layer_2" data-name="Layer 2"><g id="Layer_2-2" data-name="Layer 2"><path class="cls-1" d="M43.78,40.81l0,0h0A.08.08,0,0,1,43.78,40.81Z"/><path class="cls-1" d="M26.16,40.81a.08.08,0,0,1,0,0h0A.08.08,0,0,1,26.16,40.81Z"/><path class="cls-1" d="M27,24.57a3.53,3.53,0,0,1,.31.21l.11.05a3.2,3.2,0,0,0,1.25.38h.23a2.57,2.57,0,0,0,1.2-.29c.22-.12.22-.3.09-.49a2.89,2.89,0,0,0-2.44-1.27c-.53.05-1.36,0-1.48.43a.56.56,0,0,0,0,.22.63.63,0,0,0,.26.43A2.73,2.73,0,0,0,27,24.57Z"/><path class="cls-1" d="M31.72,31.86a.41.41,0,0,0,.22.13,2.88,2.88,0,0,0,1.92-.41,2.87,2.87,0,0,0,1.19-1c.19-.27.54-.59.29-.93s-.65-.24-1-.19l-.08,0a2.36,2.36,0,0,0-.38.08l-.08,0-.29.11-.24.12-.23.13h0a2.79,2.79,0,0,0-1.37,1.6.54.54,0,0,0,0,.19l0,.09Z"/><path class="cls-1" d="M39.33,23.27h0c.85,0,.87-1.12,1-1.89-.19-.79-.22-2.06-1-2.05h-.08c-.75,0-.78,1.27-1,2.05C38.46,22.15,38.49,23.27,39.33,23.27Z"/><path class="cls-1" d="M48.6,24.92a2.57,2.57,0,0,0,1.2.29H50a3.2,3.2,0,0,0,1.25-.38l.11-.05a3.53,3.53,0,0,1,.31-.21,2.73,2.73,0,0,0,.48-.33.63.63,0,0,0,.26-.43.56.56,0,0,0,0-.22c-.11-.43-.95-.38-1.48-.43a2.89,2.89,0,0,0-2.44,1.27C48.38,24.62,48.38,24.81,48.6,24.92Z"/><path class="cls-1" d="M44.83,31.58a2.88,2.88,0,0,0,1.92.41.41.41,0,0,0,.22-.13h.09l0-.09a.54.54,0,0,0,0-.19A2.79,2.79,0,0,0,45.65,30h0l-.23-.13-.24-.12-.29-.11-.08,0a2.36,2.36,0,0,0-.38-.08l-.08,0c-.35-.05-.78-.11-1,.19s.1.67.29.93A2.87,2.87,0,0,0,44.83,31.58Z"/><path class="cls-1" d="M39,7.5A31.13,31.13,0,1,0,70.13,38.63,31.16,31.16,0,0,0,39,7.5ZM16.14,31.8A14.25,14.25,0,0,1,30.35,17.58h18A14.25,14.25,0,0,1,62.55,31.8h0a3.38,3.38,0,0,1-3.37,3.37H19.51a3.38,3.38,0,0,1-3.37-3.37Zm45.24,9.1c0,.6-2,1.08-4.41,1.08s-4.3-.45-4.4-1c-.23.55-2.11,1-4.39,1s-4.34-.47-4.4-1.06c-.06.59-2,1.06-4.39,1.06S35,41.44,35,40.84c0,0,0,0,0,0,0,.6-2,1.08-4.41,1.08s-4.33-.47-4.39-1.06c-.06.59-2,1.06-4.4,1.06s-4.4-.48-4.4-1.08a.19.19,0,0,1,0-.08h0v-4S21,39.08,29.29,39.08a22.83,22.83,0,0,0,8.06-1.35,6.49,6.49,0,0,0,2.11-1.06s4.22,2.71,11.75,2.71a19.9,19.9,0,0,0,10.17-2.67v4h-.06A.35.35,0,0,1,61.38,40.9ZM17.5,43.31c0,.79,5.51,2,11.17,2s10.48-.83,10.48-1.62c0,.79,5,1.54,10.65,1.54s11.52-1.06,11.52-1.85c0-.19,2.4,3.38,2.4,3.38H15.08S17.5,43.12,17.5,43.31Zm45.71,8a5.35,5.35,0,0,1-5.33,5.33h-36a5.35,5.35,0,0,1-5.33-5.33v-.85a1.32,1.32,0,0,1,1.31-1.31H61.69a1.52,1.52,0,0,1,1.52,1.52Z"/><path class="cls-1" d="M80.24,97.51,63.81,69a39,39,0,1,0-10.73,6.29l16.4,28.4a2.4,2.4,0,0,0,3.27.88l6.63-3.83A2.4,2.4,0,0,0,80.24,97.51ZM39,73.75A35.13,35.13,0,1,1,74.13,38.63,35.16,35.16,0,0,1,39,73.75Z"/></g></g></svg>